<svg xmlns="http://www.w3.org/2000/svg" width="11.016" height="17.012" viewBox="0 0 11.016 17.012">
  <path id="place-icon_" data-name="place-icon " d="M528.211,567.844c-.213-.338-5.219-8.327-5.219-11.28a5.508,5.508,0,1,1,11.016,0c0,2.953-5.006,10.941-5.218,11.28a.34.34,0,0,1-.579,0Zm-4.533-11.28c0,1.122.878,3.356,2.54,6.46.91,1.7,1.83,3.236,2.282,3.978.453-.742,1.372-2.277,2.282-3.978,1.661-3.1,2.54-5.338,2.54-6.46a4.823,4.823,0,1,0-9.644,0Zm2.217-.365a2.606,2.606,0,1,1,2.606,2.565A2.588,2.588,0,0,1,525.894,556.2Zm.686,0a1.92,1.92,0,1,0,1.92-1.871A1.9,1.9,0,0,0,526.58,556.2Z" transform="translate(-522.992 -550.994)" fill="#fff"/>
</svg>
