<svg xmlns="http://www.w3.org/2000/svg" width="51.998" height="51.998" viewBox="0 0 51.998 51.998">
  <path id="commercial_" data-name="commercial " d="M890.333,1197a.867.867,0,0,1-.867-.809L887.79,1171h-.923a.867.867,0,0,1-.867-.867v-3.467a.867.867,0,0,1,.867-.866h.914l.008-.076a8.652,8.652,0,0,1,9.533-7.672,13.043,13.043,0,0,1,14.613,7.747h6.132a.867.867,0,0,1,.867.867v3.467a.867.867,0,0,1-.867.867h-.925l-.808,12.134H922.4V1181.4h-.867a2.6,2.6,0,0,1,0-5.2h.867v-13h-7.8a.867.867,0,0,1-.867-.868v-4.272l-1.724-12.071a.8.8,0,0,1-.009-.123.866.866,0,0,1,.867-.866h24.266a.941.941,0,0,1,.123.008.867.867,0,0,1,.734.981l-1.724,12.071v4.272a.867.867,0,0,1-.867.868h-7.8v13h7.8a2.6,2.6,0,0,1,2.6,2.6v17.332a.866.866,0,0,1-.867.867Zm43.331-6.066v4.333h2.6v-6.933H912v6.933h2.6v-4.333h1.733v4.333h2.6v-4.333h1.732v4.333h2.6v-4.333H925v4.333h2.6v-4.333h1.733v4.333h2.6v-4.333Zm-42.521,4.333h19.121v-9.533a2.6,2.6,0,0,1,2.6-2.6H914.6l.806-12.134H904.2v3.467a2.6,2.6,0,0,1-5.2,0v-1.733a.867.867,0,0,0-1.733,0v6.067a2.6,2.6,0,0,1-5.2,0V1171h-2.54ZM912,1185.732v.867h24.266v-7.8a.867.867,0,0,0-.867-.867H921.532a.867.867,0,0,0,0,1.733h10.4a2.6,2.6,0,0,1,0,5.2H912.866A.866.866,0,0,0,912,1185.732Zm15.6-2.6h4.333a.867.867,0,0,0,0-1.734H927.6Zm-3.467,0h1.733V1181.4h-1.733ZM889.525,1165.8h3.408a.867.867,0,0,1,.867.867V1178.8a.867.867,0,0,0,1.733,0v-6.067a2.6,2.6,0,1,1,5.2,0v1.733a.867.867,0,0,0,1.733,0v-7.8a.867.867,0,0,1,.867-.867h6.835a4.335,4.335,0,0,0-2.8-3.217.828.828,0,0,1-.2-.1.866.866,0,0,1-.239-1.2,4.322,4.322,0,1,0-7.887-2.86,8.73,8.73,0,0,1,2.8,1.5l-1.091,1.348a6.962,6.962,0,0,0-2.779-1.36h-.029a6.911,6.911,0,0,0-8.424,5.886Zm34.607,10.4h1.733v-13h-1.733Zm-19.932-6.934h13v-1.733h-13Zm-16.466,0h4.333v-1.733h-4.333Zm27.733-7.8h19.066v-2.6H915.466Zm-.115-4.333h19.3l1.486-10.4H932.8v5.2h-1.733v-5.2h-1.733v2.6H927.6v-2.6h-5.2v1.732h-1.733v-1.732h-1.732v5.2H917.2v-5.2h-3.335Zm18.314,15.6V1171h-1.733v-1.733h1.733v-1.733H935.4v1.733h1.733V1171H935.4v1.733Zm-45.932-15.6V1155.4H886v-1.733h1.733v-1.733h1.733v1.733H891.2v1.733h-1.733v1.733ZM917.2,1155.4v-1.73h1.73v1.73Zm-16.467-5.2v-1.733H899v-1.732h1.733V1145h1.733v1.733H904.2v1.732h-1.733v1.733Z" transform="translate(-886 -1145)" fill="#f45e1f"/>
</svg>
