<svg xmlns="http://www.w3.org/2000/svg" width="59.014" height="52.028" viewBox="0 0 59.014 52.028">
  <path id="house-icon" d="M486.857,1197.014a.867.867,0,0,1-.864-.869v-1.552a3.4,3.4,0,0,1,3.389-3.409,3.365,3.365,0,0,1,1.261.243,3.4,3.4,0,0,1,2.528-1.958V1183.6a9.108,9.108,0,0,0-.948-.338,1.249,1.249,0,0,1,0-2.381,9.16,9.16,0,0,0,.947-.338v-3.406h-2.821a1.072,1.072,0,0,1-.778-1.895l5.954-5.952a.861.861,0,0,1,1.222,0,.873.873,0,0,1,0,1.229l-4.875,4.874h1.589a.8.8,0,0,0,.373-.156l11.158-11.222-.866-.875-4.5,4.5a.861.861,0,0,1-1.223,0,.873.873,0,0,1,0-1.229l4.407-4.406a2.356,2.356,0,0,1,1.534-.659l25.1,0a2.435,2.435,0,0,1,1.594.661l13.242,13.238a1.122,1.122,0,0,1,.309,1.237,1.11,1.11,0,0,1-1.085.658h-.9v3.832a.864.864,0,1,1-1.729,0v-3.832H522.841v18.138h3.536v-2.969a2.826,2.826,0,0,1,5.611-.5,2.867,2.867,0,0,1,.891-.014,2.821,2.821,0,0,1,5.114-.951,2.806,2.806,0,0,1,2.891.806v-6.043a.864.864,0,1,1,1.729,0v6.521a2.843,2.843,0,0,1,2.395,2.811v1.206a.867.867,0,0,1-.864.869Zm41.249-4.708v2.969h15.172v-.337a1.1,1.1,0,0,0-1.1-1.1,1.087,1.087,0,0,0-.793.342.859.859,0,0,1-.947.206.87.87,0,0,1-.543-.807,1.1,1.1,0,0,0-1.1-1.111,1.078,1.078,0,0,0-.691.247.863.863,0,0,1-1.394-.508,1.1,1.1,0,0,0-2.175.213v.634a.865.865,0,0,1-1.394.688,1.077,1.077,0,0,0-.67-.232,1.092,1.092,0,0,0-.732.284.864.864,0,0,1-1.442-.648v-.834a1.1,1.1,0,1,0-2.2,0Zm-18.635-14.147a1.446,1.446,0,0,1,1.44,1.449v15.667h10.2v-18.138h-2.2a2.424,2.424,0,0,1-1.595-.667l-11.107-11.218-11.155,11.22a.82.82,0,0,0-.154.374v1.141a1.237,1.237,0,0,1,2,.566c.5,1.625.7,1.82,2.312,2.326a1.249,1.249,0,0,1,0,2.381c-1.616.506-1.81.7-2.313,2.326a1.237,1.237,0,0,1-2,.566v9.122h6.29v-15.667a1.446,1.446,0,0,1,1.441-1.449Zm-6.551,17.116h6.262V1179.9h-6.262Zm-15.2-.682v.682h5.449v-4.016a1.67,1.67,0,0,0-1.1,1.571.875.875,0,0,1-.543.811.858.858,0,0,1-.947-.2,1.645,1.645,0,0,0-1.2-.517A1.668,1.668,0,0,0,487.722,1194.593Zm6.266-12.522a3.306,3.306,0,0,1,1.732,1.742,1.742,1.742,0,0,0,0-3.485A3.3,3.3,0,0,1,493.988,1182.071Zm24.554-6.827a.8.8,0,0,0,.371.155h23.077l-2.146-2.146H516.57Zm-3.693-3.73H538.1l-1.685-1.685h-4.9a.869.869,0,0,1,0-1.739h3.158l-1.685-1.685h-23.2l1.668,1.685H526.68a.869.869,0,0,1,0,1.739h-13.5Zm-8.344-8.428,1.565,1.581h23.185l-1.429-1.429a.818.818,0,0,0-.375-.156Zm9.27,29.645c-.4-1.3-.52-1.418-1.813-1.823a1.183,1.183,0,0,1,0-2.256c1.291-.4,1.409-.524,1.811-1.823a1.173,1.173,0,0,1,2.244,0c.4,1.3.52,1.417,1.812,1.823a1.183,1.183,0,0,1,0,2.255c-1.292.405-1.409.524-1.812,1.823a1.173,1.173,0,0,1-2.244,0Zm.014-2.951a1.107,1.107,0,1,0,2.215,0,1.107,1.107,0,1,0-2.215,0Zm-8.879-2.094v-1.23a.865.865,0,0,1,1.731,0v1.23a.865.865,0,0,1-1.731,0Zm27.832.773a1.215,1.215,0,0,1-1.21-1.218v-7.865a1.215,1.215,0,0,1,1.21-1.217h2.93a1.215,1.215,0,0,1,1.211,1.217v7.865a1.215,1.215,0,0,1-1.211,1.218Zm.518-1.739h1.893V1179.9h-1.893Zm-8.293,1.739a1.215,1.215,0,0,1-1.21-1.218v-7.865a1.214,1.214,0,0,1,1.21-1.217h2.93a1.214,1.214,0,0,1,1.21,1.217v7.865a1.215,1.215,0,0,1-1.21,1.218Zm.519-1.739h1.892V1179.9h-1.892Zm-14.293-1.738a1.215,1.215,0,0,1-1.21-1.217V1181.1a1.214,1.214,0,0,1,1.21-1.217h2.191a1.214,1.214,0,0,1,1.21,1.217v2.667a1.215,1.215,0,0,1-1.21,1.217Zm.519-1.739h1.152v-1.623h-1.152Zm25.294-16.785c-.4-1.3-.521-1.418-1.813-1.823a1.184,1.184,0,0,1,0-2.256c1.291-.4,1.409-.523,1.812-1.823a1.172,1.172,0,0,1,2.243,0c.4,1.3.521,1.418,1.813,1.823a1.183,1.183,0,0,1,0,2.255c-1.291.4-1.41.525-1.813,1.823a1.173,1.173,0,0,1-2.243,0Zm.013-2.951a1.108,1.108,0,1,0,2.216,0,1.108,1.108,0,1,0-2.216,0Zm-45.833.542c-.5-1.624-.7-1.819-2.312-2.326a1.248,1.248,0,0,1,0-2.38c1.615-.506,1.809-.7,2.312-2.327a1.238,1.238,0,0,1,2.367,0c.5,1.625.7,1.821,2.313,2.327a1.249,1.249,0,0,1,0,2.381c-1.615.506-1.809.7-2.312,2.326a1.237,1.237,0,0,1-2.367,0Zm-.549-3.515a3.3,3.3,0,0,1,1.733,1.742,1.742,1.742,0,0,0,0-3.485A3.3,3.3,0,0,1,492.638,1160.533Zm32.255-9.578a5.936,5.936,0,1,1,5.936,5.971A5.96,5.96,0,0,1,524.893,1150.955Zm1.729,0a4.207,4.207,0,1,0,4.207-4.231A4.224,4.224,0,0,0,526.622,1150.955Z" transform="translate(-485.993 -1144.985)" fill="#f45e1f"/>
</svg>
